<svg t="1656316267179" class="icon" viewBox="0 0 1024 1024" version="1.1" xmlns="http://www.w3.org/2000/svg" p-id="3336" width="128" height="128"><path d="M512 537.277c76.616 0 138.941-62.033 138.941-138.28S588.616 260.725 512 260.725s-138.947 62.029-138.947 138.276S435.384 537.277 512 537.277z m0-221.24c46.024 0.051 83.318 37.171 83.369 82.965 0 45.824-37.33 82.97-83.369 82.97-46.044 0-83.364-37.146-83.364-82.97 0-45.82 37.32-82.965 83.364-82.965z m382.956 563.487L783.8 741.248a27.832 27.832 0 0 0-21.698-10.378h-55.578c-15.35 0-27.791 12.38-27.791 27.653s12.441 27.653 27.791 27.653h42.22l66.698 82.97H208.558l66.698-82.97h42.22c15.344 0 27.786-12.385 27.786-27.653s-12.442-27.653-27.786-27.653h-55.578a27.832 27.832 0 0 0-21.698 10.378L129.04 879.524a27.571 27.571 0 0 0-6.083 17.28c0 15.273 12.441 27.653 27.791 27.653h722.514a27.873 27.873 0 0 0 17.362-6.057 27.576 27.576 0 0 0 4.332-38.876zM296.09 614.349l0.035 0.025 196.23 195.287c5.207 5.187 12.277 8.1 19.65 8.1s14.439-2.908 19.65-8.1l196.501-195.553 0.215-0.22c119.378-118.922 119.28-311.634-0.215-430.438-119.5-118.8-313.139-118.702-432.517 0.22-119.378 118.922-119.275 311.639 0.22 430.438 0.067 0.082 0.149 0.159 0.23 0.24z m39.06-391.342c97.67-97.203 256.026-97.203 353.7 0 97.664 97.198 97.664 254.791 0 351.995L512 750.996 335.15 575.002c-97.669-97.204-97.669-254.797 0-351.995z" p-id="3337" fill="#1362fc"></path></svg>