<svg t="1656124002375" class="icon" viewBox="0 0 1024 1024" version="1.1" xmlns="http://www.w3.org/2000/svg" p-id="21951" width="128" height="128"><path d="M34.78141155555551 524.6248301848652c0 7.574897834750944 2.524965484636708 12.624830184865182 7.574897834750944 17.674762534979426l406.5195383045267 386.31981028491055c5.049932350114236 5.049932350114236 10.099864700228473 7.574897834750944 17.674762534979426 7.574897834750944 2.524965484636708 0 7.574897834750944 0 10.099864700228473-2.524965484636708 10.099864700228473-5.049932350114236 15.149797050342714-12.624830184865182 15.149797050342714-22.72469488509366V713.9972857195246h434.2941641588938c27.774627235207902 0 50.49932212030156-22.72469488509366 50.49932212030156-50.49932073946073V383.22672990502986c0-27.774627235207902-22.72469488509366-50.49932212030156-50.49932212030156-50.49932073946073H491.8002719803838v-196.94735475025118c0-10.099864700228473-5.049932350114236-20.19972801961613-15.149797050342714-22.72469488509366-10.099864700228473-5.049932350114236-20.19972801961613-2.524965484636708-27.774627235207902 5.049932350114236L42.35630939030659 506.95006764988574c-5.049932350114236 5.049932350114236-7.574897834750944 10.099864700228473-7.574897834750944 17.674762534979426z m406.5195383045267-328.2455903298581v161.59782968029234c0 7.574897834750944 2.524965484636708 12.624830184865182 7.574897834750944 17.674762534979426s10.099864700228473 7.574897834750944 17.674762534979426 7.574897834750944h459.54382590946506V663.4979649800639H466.5506102298126c-15.149797050342714 0-25.249660369730364 10.099864700228473-25.249660369730364 25.249660369730364v161.5978282994515l-345.9203528648375-328.24558894901725 345.9203528648375-325.72062484522144z" fill="#999999" p-id="21952"></path></svg>