<svg t="1656420830241" class="icon" viewBox="0 0 1024 1024" version="1.1" xmlns="http://www.w3.org/2000/svg" p-id="47288" width="128" height="128"><path d="M928 960H736c-17.6 0-32-14.4-32-32s14.4-32 32-32h160V736c0-17.6 14.4-32 32-32s32 14.4 32 32v192c0 17.6-14.4 32-32 32z m0-640c-17.6 0-32-14.4-32-32V128H736c-17.6 0-32-14.4-32-32s14.4-32 32-32h192c17.6 0 32 14.4 32 32v192c0 17.6-14.4 32-32 32z m-160 155.2v4.8c0 3.2 0 6.4-1.6 8C756.8 657.6 646.4 832 512 832S267.2 657.6 257.6 488c0-3.2-1.6-4.8-1.6-8v-4.8-11.2c0-176 115.2-272 256-272s256 96 256 272v11.2zM689.6 560c-38.4 16-89.6 27.2-145.6 30.4v171.2c65.6-20.8 121.6-108.8 145.6-201.6zM480 763.2V590.4c-56-3.2-107.2-14.4-145.6-30.4 24 92.8 80 180.8 145.6 203.2zM320 480c0 24 68.8 43.2 160 48v-96c-91.2 4.8-160 24-160 48z m6.4-76.8c40-17.6 92.8-30.4 153.6-33.6v-110.4c-75.2 9.6-136 59.2-153.6 144zM544 257.6V368c60.8 3.2 113.6 16 153.6 33.6-17.6-83.2-78.4-132.8-153.6-144zM544 432v96c91.2-3.2 160-24 160-48s-68.8-43.2-160-48zM288 128H128v160c0 17.6-14.4 32-32 32s-32-14.4-32-32V96c0-17.6 14.4-32 32-32h192c17.6 0 32 14.4 32 32s-14.4 32-32 32zM96 704c17.6 0 32 14.4 32 32v160h160c17.6 0 32 14.4 32 32s-14.4 32-32 32H96c-17.6 0-32-14.4-32-32V736c0-17.6 14.4-32 32-32z" p-id="47289" fill="#FFFFFF"></path></svg>