<svg t="1656420859075" class="icon" viewBox="0 0 1024 1024" version="1.1" xmlns="http://www.w3.org/2000/svg" p-id="49060" width="128" height="128"><path d="M267.388928 514.13504c0 58.960896-47.794176 106.753024-106.754048 106.753024S53.880832 573.095936 53.880832 514.13504s47.793152-106.761216 106.753024-106.761216S267.388928 455.175168 267.388928 514.13504z" p-id="49061" fill="#FFFFFF"></path><path d="M619.495424 514.13504c0 58.960896-47.794176 106.753024-106.754048 106.753024s-106.753024-47.793152-106.753024-106.753024 47.793152-106.761216 106.753024-106.761216S619.495424 455.175168 619.495424 514.13504z" p-id="49062" fill="#FFFFFF"></path><path d="M971.602944 514.13504c0 58.960896-47.794176 106.753024-106.754048 106.753024s-106.753024-47.793152-106.753024-106.753024S805.888 407.374848 864.848896 407.374848 971.602944 455.175168 971.602944 514.13504z" p-id="49063" fill="#FFFFFF"></path></svg>