<svg t="1655204382660" class="icon" viewBox="0 0 1024 1024" version="1.1" xmlns="http://www.w3.org/2000/svg" p-id="24496" width="200" height="200"><path d="M520 992C259.728 992 48 780.256 48 520S259.728 48 520 48a468.72 468.72 0 0 1 275.248 88.528 24 24 0 0 1-28.032 38.976A420.832 420.832 0 0 0 520 96C286.208 96 96 286.208 96 520S286.208 944 520 944 944 753.792 944 520c0-53.6-9.856-105.808-29.28-155.184a24 24 0 1 1 44.656-17.584A469.712 469.712 0 0 1 992 520C992 780.256 780.272 992 520 992z m-90.976-263.584c-6.368 0-12.48-2.528-16.976-7.024L231.04 540.368a24 24 0 0 1 33.92-33.952l164.064 164.08L916.48 183.04a24 24 0 1 1 33.92 33.92L445.984 721.392a24.064 24.064 0 0 1-16.96 7.04z" fill="#ffffff" p-id="24497"></path></svg>