<svg t="1656509765397" class="icon" viewBox="0 0 1024 1024" version="1.1" xmlns="http://www.w3.org/2000/svg" p-id="17299" width="128" height="128"><path d="M819.3 386.9c-9.8 0-19.6-3.7-27-11.2-14.9-14.9-14.9-39.2 0-54.1l88.2-88.2c7.2-7.2 16.8-11.2 27-11.2s19.8 4 27 11.2c14.9 14.9 14.9 39.2 0 54.1l-88.2 88.2c-7.5 7.4-17.2 11.2-27 11.2z" fill="#FFFFFF" p-id="17300"></path><path d="M905.6 292.4c-9.3 0-18.5-3.5-25.6-10.6l-91-91c-14.1-14.1-14.1-37.1 0-51.2s37.1-14.1 51.2 0l91 91c6.8 6.8 10.6 15.9 10.6 25.6 0 9.7-3.8 18.8-10.6 25.6-7 7.1-16.3 10.6-25.6 10.6z" fill="#FFFFFF" p-id="17301"></path><path d="M506.9 645.1c-18.8 0-34-15.2-34-34 0-53.5 10.5-105.3 31.1-154.2 20-47.2 48.5-89.5 84.9-125.9 36.4-36.4 78.7-64.9 125.9-84.9C763.7 225.4 815.6 215 869 215c18.8 0 34 15.2 34 34s-15.2 34-34 34c-87.6 0-170 34.1-232 96.1-62 62-96.1 144.4-96.1 232 0 18.8-15.2 34-34 34z" fill="#FFFFFF" p-id="17302"></path><path d="M504.3 948.7c-58.9 0-116-11.5-169.9-34.3-52-22-98.6-53.4-138.7-93.5s-71.5-86.7-93.5-138.7C79.5 628.4 68 571.2 68 512.3s11.5-116 34.3-169.9c22-52 53.4-98.6 93.5-138.7s86.7-71.5 138.7-93.5C388.3 87.5 445.4 76 504.3 76c39.1 0 77.8 5.2 115.1 15.4 18.1 4.9 28.8 23.6 23.9 41.8-4.9 18.1-23.6 28.8-41.8 23.9-31.5-8.6-64.2-13-97.2-13-98.4 0-190.9 38.3-260.5 107.9C174.3 321.5 136 414 136 512.3s38.3 190.9 107.9 260.5c69.6 69.6 162.1 107.9 260.5 107.9s190.9-38.3 260.5-107.9c69.6-69.6 107.9-162.1 107.9-260.5 0-18.8 15.2-34 34-34s34 15.2 34 34c0 58.9-11.5 116-34.3 169.9-22 52-53.4 98.6-93.5 138.7s-86.7 71.5-138.7 93.5c-53.9 22.7-111.1 34.3-170 34.3z" fill="#FFFFFF" p-id="17303"></path></svg>