<svg t="1656120397714" class="icon" viewBox="0 0 1024 1024" version="1.1" xmlns="http://www.w3.org/2000/svg" p-id="21036" width="128" height="128"><path d="M790.4 579.2c16 0 32 3.2 41.6 9.6l3.2 3.2h3.2c-48 12.8-76.8 51.2-86.4 99.2V720h70.4c3.2 0 3.2 0 3.2 3.2l3.2 3.2c0 3.2 0 3.2-3.2 6.4L704 867.2c-3.2 3.2-6.4 0-6.4 0L576 732.8l-3.2-3.2c0-3.2 3.2-6.4 6.4-6.4h70.4c0-83.2 64-144 140.8-144z m-182.4-6.4l22.4 28.8c-16 22.4-22.4 38.4-28.8 60.8h-16c-25.6 0-41.6 3.2-57.6 25.6-19.2 25.6-9.6 60.8 0 73.6l67.2 70.4 9.6 12.8 9.6 9.6H246.4c-22.4 0-44.8-12.8-54.4-35.2s-6.4-48 9.6-64l153.6-179.2c38.4 22.4 83.2 35.2 128 35.2s86.4-16 124.8-38.4zM480 160c112 0 201.6 92.8 201.6 204.8s-89.6 204.8-201.6 204.8-201.6-92.8-201.6-204.8S368 160 480 160z" p-id="21037" fill="#666666"></path></svg>