<svg id="logo" data-name="logo" xmlns="http://www.w3.org/2000/svg" viewBox="0 0 500 500"><defs><style>.cls-1{fill:#f4f4f5;}.cls-2{fill:#33c9ff;}</style></defs><circle class="cls-1" cx="250" cy="250" r="210"/><path class="cls-2" d="M250,80a170,170,0,1,1-120.21,49.79A168.88,168.88,0,0,1,250,80m0-80C111.93,0,0,111.93,0,250S111.93,500,250,500,500,388.07,500,250,388.07,0,250,0Z"/><circle class="cls-1" cx="250" cy="250" r="40"/><path class="cls-2" d="M250,170a80,80,0,1,0,80,80,80,80,0,0,0-80-80Z"/><rect class="cls-1" x="330" y="250" width="90" height="250"/></svg>