<svg t="1656318881084" class="icon" viewBox="0 0 1024 1024" version="1.1" xmlns="http://www.w3.org/2000/svg" p-id="8852" width="128" height="128"><path d="M578.430983 502.5345a365.407838 365.407838 0 0 0-50.180294-17.793902 252.167145 252.167145 0 1 0-194.913961 0 367.566931 367.566931 0 0 0-102.891938 46.681074l-2.233545 1.48903c-3.275865 2.159093-6.55173 4.392637-9.753143 6.700633-2.084641 1.489029-4.169283 2.978059-6.253924 4.615991l-0.893417 0.595612-5.062701 3.871476c-3.722574 2.829156-7.445147 5.807215-11.391075 9.157532l-3.945929 3.275865-17.719451 14.890295 0.96787 0.52116A378.213492 378.213492 0 0 0 60.32317 847.691537V871.292655a104.604322 104.604322 0 0 0 104.232064 104.232064h324.60843a296.763578 296.763578 0 0 1 89.34177-473.511379zM710.954608 731.398333a40.054893 40.054893 0 1 0 40.054893 40.054894 40.129345 40.129345 0 0 0-40.054893-40.054894z" fill="#FFFFFF" p-id="8853"></path><path d="M710.954608 519.062727a252.464951 252.464951 0 1 0 252.464951 252.3905 253.135014 253.135014 0 0 0-252.464951-252.3905z m140.415481 272.492398v0.595612a29.036075 29.036075 0 0 1-20.325253 21.293122l-4.094831 0.967869a30.30175 30.30175 0 0 0-20.771961 35.736708l1.265675 4.243734a28.961624 28.961624 0 0 1-8.264114 28.217109h-0.446709a115.995398 115.995398 0 0 1-16.751581 11.018818 135.650587 135.650587 0 0 1-18.017257 9.08308h-0.521161a29.78059 29.78059 0 0 1-8.487468 1.265675 28.738269 28.738269 0 0 1-20.176349-8.189662v-0.446709l-2.605802-2.680253a30.227299 30.227299 0 0 0-41.320569 0l-2.605801 2.754704a29.036075 29.036075 0 0 1-20.771962 8.56192 24.866793 24.866793 0 0 1-8.859725-1.48903 129.24776 129.24776 0 0 1-17.793903-9.008628 124.482866 124.482866 0 0 1-16.900484-11.018818l-0.446709-0.446709a29.110527 29.110527 0 0 1-8.264114-28.217109l1.191224-4.02038a30.376202 30.376202 0 0 0-3.275865-22.335442 29.78059 29.78059 0 0 0-17.421645-13.922426l-3.648123-0.818966a28.961624 28.961624 0 0 1-20.920864-21.963185 181.438244 181.438244 0 0 1 0-40.203796v-0.595612a28.961624 28.961624 0 0 1 19.878544-20.101898l4.243734-1.042321A30.376202 30.376202 0 0 0 615.954526 692.609115l-1.265675-4.169282a28.887172 28.887172 0 0 1 8.264114-28.217109h0.372257a130.438984 130.438984 0 0 1 16.826033-11.09327 126.939764 126.939764 0 0 1 17.942806-9.008629h0.670063a29.184978 29.184978 0 0 1 8.413017-1.265675 28.738269 28.738269 0 0 1 20.176349 8.189663l2.978059 3.201413a30.376202 30.376202 0 0 0 41.246117 0l2.903608-3.126962a28.738269 28.738269 0 0 1 20.101898-8.189662 29.78059 29.78059 0 0 1 8.487468 1.265675H764.187412a138.628646 138.628646 0 0 1 17.496097 9.008628 126.120798 126.120798 0 0 1 16.751582 10.869916l0.446708 0.446709a29.110527 29.110527 0 0 1 8.264114 28.142657v0.446709l-1.340126 3.945928a30.30175 30.30175 0 0 0 20.548607 35.587805l4.169282 0.967869a28.961624 28.961624 0 0 1 20.325253 21.21867l1.116772 14.369135v6.328375a136.395102 136.395102 0 0 1-0.595612 20.027447z" fill="#FFFFFF" p-id="8854"></path></svg>