<svg t="1656160239323" class="icon" viewBox="0 0 1024 1024" version="1.1" xmlns="http://www.w3.org/2000/svg" p-id="44266" width="128" height="128"><path d="M331.30454521 511.34545479a32.72727305 32.72727305 0 0 0-47.7 44.7954539l104.64545479 111.55909131a40.90909131 40.90909131 0 0 0 56.78181826 2.78181826l293.07272695-256.58181826a32.72727305 32.72727305 0 0 0-43.11818174-49.25454521l-275.23636347 240.95454521-88.44545479-94.25454521z" p-id="44267" fill="#FFFFFF"></path><path d="M512 953.81818174c244.02272695 0 441.81818174-197.79545479 441.81818174-441.81818174C953.81818174 267.97727305 756.02272695 70.18181826 512 70.18181826 267.97727305 70.18181826 70.18181826 267.97727305 70.18181826 512c0 244.02272695 197.79545479 441.81818174 441.81818174 441.81818174z m0-65.45454522a376.36363653 376.36363653 0 1 1 0-752.72727305 376.36363653 376.36363653 0 0 1 0 752.72727305z" p-id="44268" fill="#FFFFFF"></path></svg>