<svg t="1655111888527" class="icon" viewBox="0 0 1024 1024" version="1.1" xmlns="http://www.w3.org/2000/svg" p-id="14473" width="200" height="200"><path d="M512 1024C230.4 1024 0 793.6 0 512S230.4 0 512 0s512 230.4 512 512-230.4 512-512 512z" fill="#92b9cc" p-id="14474"></path><path d="M865.456 219.048L400.832 455.56l-41.184 20.232 131.784 89.032 16.536 121.408L760.52 959.096C917.336 871.32 1024 703.552 1024 512c0-39.712-4.728-78.344-13.392-115.512l-145.152-177.44z" fill="#92b9cc" p-id="14475"></path><path d="M862.672 219.584L355.864 477.232l131.032 84.536 16.304 119.864 106.072-53.296 81.512 39s.704z" fill="#5BC1ED" p-id="14476"></path><path d="M503.2 688.48a6.92 6.92 0 0 1-3.192-0.784 6.856 6.856 0 0 1-3.592-5.128l-15.88-116.744-128.376-82.832a6.858 6.858 0 0 1-3.128-6.104 6.84 6.84 0 0 1 3.736-5.752l506.8-257.656a6.856 6.856 0 1 1 9.504 8.56l-171.896 448.448a6.832 6.832 0 0 1-3.88 3.92 6.788 6.788 0 0 1-5.512-0.208l-78.464-38.232-103.04 51.784a6.86 6.86 0 0 1-3.08 0.728m-133.608-210.544l121.016 78.072a6.86 6.86 0 0 1 3.072 4.832l15.008 110.368 97.504-49a6.838 6.838 0 0 1 6.072-0.04l74.8 36.44 162.848-424.864-480.32 244.192z" fill="#474341" p-id="14477"></path><path d="M552.416 595.024l-33.008 70.848 84.536-37.04v-6.44l-48.312-28.176z" fill="#0C8BAE" p-id="14478"></path><path d="M488.008 556.376L828.56 256.88 553.224 587.776 505.72 681.16z" fill="#0C8BAE" p-id="14479"></path><path d="M505.72 686a4.84 4.84 0 0 1-4.784-4.152l-17.712-124.784a4.814 4.814 0 0 1 1.6-4.304l340.552-299.496a4.84 4.84 0 0 1 6.56 0.16c1.8 1.76 1.952 4.616 0.344 6.552l-275 330.472-47.256 92.904A4.812 4.812 0 0 1 505.72 686m-12.56-127.712l15.192 107.048 40.56-79.744c0.16-0.32 0.36-0.616 0.592-0.904l235.672-283.216L493.16 558.288z" fill="#474341" p-id="14480"></path><path d="M864.128 219.808c-2.056-0.448-4.264-0.056-5.968 1.432L482.376 551.344a6.83 6.83 0 0 0-0.616 9.656 6.84 6.84 0 0 0 9.656 0.624l304.92-267.864-250.04 293.832c-0.36 0.432-0.672 0.896-0.92 1.392l-41.056 82.808a6.85 6.85 0 0 0 6.128 9.896c2.52 0 4.944-1.4 6.136-3.808l40.688-82.04L862.96 236.624c-1.376-5.56-0.992-11.56 1.168-16.816" fill="#474341" p-id="14481"></path><path d="M609.264 635.184c-1.24 0-2.504-0.344-3.64-1.056l-57.768-36.296a6.846 6.846 0 0 1-2.152-9.44c2.016-3.2 6.24-4.184 9.44-2.152l57.768 36.296a6.846 6.846 0 0 1 2.152 9.44 6.824 6.824 0 0 1-5.8 3.208M176.344 616.504a6.848 6.848 0 0 1-6.784-7.832c0.68-4.68 1.544-9.336 2.576-13.928a6.856 6.856 0 0 1 8.176-5.184 6.848 6.848 0 0 1 5.184 8.176 179.746 179.746 0 0 0-2.392 12.912 6.844 6.844 0 0 1-6.76 5.856M389.968 826.016c-4.608 0-9.368-0.336-14.136-1.008a6.846 6.846 0 0 1-5.816-7.736c0.52-3.752 4-6.376 7.736-5.824 8.688 1.232 17.136 1.184 25.04-0.184 3.712-0.616 7.272 1.864 7.904 5.592a6.844 6.844 0 0 1-5.592 7.904 90.72 90.72 0 0 1-15.136 1.256m-36.664-7.736c-0.976 0-1.968-0.208-2.904-0.648a77.264 77.264 0 0 1-24-17.52 6.842 6.842 0 0 1 0.376-9.672 6.828 6.828 0 0 1 9.672 0.376 63.726 63.726 0 0 0 19.776 14.424 6.856 6.856 0 0 1 3.288 9.112 6.88 6.88 0 0 1-6.208 3.928m73.776-1.28a6.834 6.834 0 0 1-6.056-3.656 6.84 6.84 0 0 1 2.856-9.248c7.12-3.76 13.824-8.856 19.904-15.12a6.848 6.848 0 0 1 9.832 9.528c-7.088 7.304-14.936 13.256-23.336 17.696a6.8 6.8 0 0 1-3.2 0.8m-108.984-35.168c-2.64 0-5.16-1.536-6.28-4.112a81.546 81.546 0 0 1-1.24-3 90.602 90.602 0 0 1-16.376 4.424c-3.672 0.672-7.264-1.848-7.904-5.584a6.828 6.828 0 0 1 5.584-7.904 77.808 77.808 0 0 0 14.712-4.064 91.232 91.232 0 0 1-1.864-12.392 6.842 6.842 0 0 1 6.256-7.392c3.704-0.4 7.072 2.488 7.384 6.256 0.248 2.944 0.648 5.84 1.208 8.68a6.848 6.848 0 0 1 3.432 12.128c0.432 1.144 0.888 2.256 1.368 3.368a6.852 6.852 0 0 1-6.28 9.592m145.544-0.656a6.84 6.84 0 0 1-5.824-10.432c4.344-7.056 8.176-14.896 11.392-23.32a6.836 6.836 0 0 1 8.84-3.96 6.844 6.844 0 0 1 3.96 8.832c-3.52 9.232-7.736 17.848-12.528 25.624a6.862 6.862 0 0 1-5.84 3.256m-195.04-1.392c-0.288 0-0.584-0.008-0.872-0.048-9.68-1.232-19.152-4.032-28.136-8.304-3.416-1.632-4.864-5.72-3.232-9.128s5.72-4.856 9.128-3.232a78.752 78.752 0 0 0 23.976 7.08 6.86 6.86 0 0 1 5.928 7.656 6.868 6.868 0 0 1-6.792 5.976m-46.576-21.072a6.768 6.768 0 0 1-4.432-1.64 110.916 110.916 0 0 1-11.904-11.848 141.414 141.414 0 0 1-7.504-9.456 6.844 6.844 0 1 1 11.072-8.048 125.394 125.394 0 0 0 6.784 8.536 97.766 97.766 0 0 0 10.44 10.4 6.844 6.844 0 0 1 0.768 9.648c-1.36 1.6-3.28 2.408-5.224 2.408m116.52-2.656a6.842 6.842 0 0 1-4.688-11.832c4.576-4.304 8.832-9.224 12.656-14.616a101.734 101.734 0 0 0 3.368-5.12c2-3.216 6.232-4.2 9.424-2.208a6.836 6.836 0 0 1 2.208 9.424 117.08 117.08 0 0 1-3.824 5.816c-4.36 6.136-9.216 11.744-14.448 16.672a6.808 6.808 0 0 1-4.696 1.864m-25.736-25.016c-0.416 0-0.84-0.04-1.256-0.12a6.844 6.844 0 0 1-5.48-7.984c0.84-4.488 1.976-8.968 3.392-13.304 1.312-4.032 3.448-9.208 5.856-14.2a6.84 6.84 0 0 1 9.144-3.192 6.848 6.848 0 0 1 3.184 9.144c-2.152 4.472-4.048 9.016-5.168 12.488a89.992 89.992 0 0 0-2.944 11.584 6.848 6.848 0 0 1-6.728 5.584m-121.736-13.448c-2.528 0-4.96-1.4-6.152-3.816a163.798 163.798 0 0 1-10.264-26.512 6.838 6.838 0 0 1 4.656-8.488 6.864 6.864 0 0 1 8.488 4.656 150.086 150.086 0 0 0 9.408 24.288 6.846 6.846 0 0 1-6.136 9.872m175.808-4.504a6.844 6.844 0 0 1-6.344-9.416c3.304-8.176 5.056-15.408 5.056-20.92 0-0.792-0.04-1.568-0.112-2.32a6.838 6.838 0 0 1 6.12-7.496c3.672-0.376 7.12 2.36 7.496 6.12 0.128 1.2 0.176 2.44 0.176 3.696 0.008 7.352-2.024 16.128-6.048 26.056a6.84 6.84 0 0 1-6.344 4.28m-32.584-28.76c-1.496 0-3-0.488-4.264-1.496a6.834 6.834 0 0 1-1.08-9.616c8.704-10.912 17.728-16.44 26.832-16.44 0.112 0 1.08 0.024 1.192 0.024 3.776 0.192 6.688 3.4 6.496 7.176s-3.384 6.808-7.176 6.504l0.336-6.84-0.856 6.816c-4.592 0-10.328 4.016-16.136 11.288a6.784 6.784 0 0 1-5.344 2.584M176.088 668.2a6.844 6.844 0 0 1-6.768-5.904 187.042 187.042 0 0 1-1.784-25.88l0.008-2.352c0.048-3.776 3.216-6.504 6.936-6.768a6.846 6.846 0 0 1 6.76 6.936l-0.016 2.184c0 8.048 0.56 16.112 1.656 23.984a6.84 6.84 0 0 1-5.832 7.728c-0.32 0.056-0.64 0.072-0.96 0.072M482.816 732.68a6.844 6.844 0 0 1-6.68-8.352c0.968-4.304 1.768-8.64 2.408-12.968 0.552-3.736 4.096-6.272 7.776-5.768a6.84 6.84 0 0 1 5.768 7.776 192.612 192.612 0 0 1-2.592 13.96 6.874 6.874 0 0 1-6.68 5.352M521.016 527.52a3336.128 3336.128 0 0 0 6.952 96.648c0.536 6.144 10.2 6.2 9.664 0a3336.128 3336.128 0 0 1-6.952-96.648c-0.36-6.176-10.016-6.224-9.664 0M551.28 498.544l7.208 74.88c0.584 6.136 10.256 6.192 9.656 0l-7.2-74.88c-0.592-6.136-10.264-6.2-9.664 0M579.816 476.992c3.152 20.48 6.296 40.96 9.448 61.432 0.936 6.128 10.248 3.52 9.32-2.568-3.152-20.48-6.296-40.96-9.448-61.432-0.944-6.128-10.256-3.528-9.32 2.568M609.424 450.216l5.688 56.792c0.616 6.128 10.28 6.192 9.656 0a136410.24 136410.24 0 0 1-5.68-56.792c-0.616-6.128-10.28-6.184-9.664 0M642.8 423.704c1.832 14.864 3.656 29.736 5.488 44.6 0.752 6.088 10.416 6.168 9.656 0-1.832-14.864-3.656-29.736-5.48-44.6-0.76-6.088-10.424-6.168-9.664 0M677.04 391.048l4.816 41.056c0.72 6.104 10.384 6.176 9.664 0l-4.816-41.056c-0.72-6.104-10.384-6.176-9.664 0M708.784 364.44c1.168 9.664 2.336 19.336 3.496 29 0.736 6.096 10.408 6.176 9.664 0-1.168-9.664-2.336-19.336-3.496-29-0.736-6.096-10.4-6.168-9.664 0M745.944 330.656c-0.648 8.472 0.952 16.392 4.32 24.16 2.464 5.688 10.792 0.768 8.336-4.872-2.672-6.16-3.504-12.624-2.992-19.288 0.464-6.2-9.2-6.168-9.664 0M692.928 572.744c-5.176 12.416-10.368 24.84-15.544 37.256-2.392 5.736 6.952 8.232 9.32 2.568l15.544-37.256c2.384-5.736-6.96-8.232-9.32-2.568M734.376 473.4l-31.088 74.512c-2.392 5.736 6.952 8.232 9.32 2.568 10.36-24.84 20.72-49.672 31.088-74.512 2.384-5.736-6.96-8.232-9.32-2.568" fill="#474341" p-id="14482"></path></svg>