<svg t="1655642569839" class="icon" viewBox="0 0 1024 1024" version="1.1" xmlns="http://www.w3.org/2000/svg" p-id="2477" width="200" height="200"><path d="M951.893327 846.200001c-12.626667-19.333333-29.166666-35.56-50.58-49.66-38.1-25.086667-86.266666-39.6-137.266665-54.973332-20.433333-6.153333-41.56-12.52-62.666667-19.76-44-15.066667-68.606666-45.506666-75.046666-92.873333l6.793334-5.093333a148.666666 148.666666 0 0 0 57.699999-94.92l3.073333-18.453333c10.186667-2.866667 20.846667-9.513333 29.9-23.013333 8.62-12.873333 13.606667-28.8 18-42.846667 1.866667-5.96 3.626667-11.586667 5.42-16.186666C756.739995 404.000004 762.666662 374.960004 762.666662 352.666671c0-22.613333-9.58-35.786666-17.62-42.853333a50.12 50.12 0 0 0-19.713333-10.6V158.493339a85.333333 85.333333 0 0 0-67.593333-83.466666l-49.853333-10.593333c7.393333-8.713333 16.613333-18.76 25.866666-28A21.333333 21.333333 0 0 0 618.666663 0.000007c-18.586667 0-79.793333 5.253333-143.606666 17.913333C389.999997 34.780006 328.913331 58.320006 293.433331 87.886673A85.073333 85.073333 0 0 0 255.999998 158.493339v140.719999a50.12 50.12 0 0 0-19.713333 10.6C228.246665 316.880005 218.666665 330.053338 218.666665 352.666671c0 22.293333 5.926667 51.333333 15.46 75.753333 1.793333 4.6 3.553333 10.226667 5.42 16.186666 4.4 14.053333 9.386667 30 18 42.846667 9.053333 13.5 19.713333 20.146667 29.9 23.013333l3.073333 18.453333a148.666666 148.666666 0 0 0 57.7 94.92l6.793333 5.093333c-6.44 47.366666-31.073333 77.806666-75.046666 92.873333-21.126667 7.24-42.253333 13.606667-62.666666 19.76-51 15.373333-99.166666 29.886666-137.266666 54.973332-21.426667 14.126667-37.966666 30.346666-50.593333 49.66-13.9 21.266667-22.666667 45.6-26.786667 74.38A53.3 53.3 0 0 0 55.473333 981.333334h870.386661a53.3 53.3 0 0 0 52.82-60.753333c-4.126667-28.78-12.893333-53.113333-26.786667-74.38zM933.999994 934.960001a10.606667 10.606667 0 0 1-8.113333 3.706666H55.473333a10.606667 10.606667 0 0 1-8.14-3.706666 10.346667 10.346667 0 0 1-2.466667-8.326667c6.113333-42.666666 24.186667-71.8 58.593333-94.459999 32.9-21.666667 78.179999-35.333333 126.113333-49.753333 20.806667-6.266667 42.32-12.753333 64.206666-20.253334C357.333331 740.400002 393.633331 691.460002 398.753331 620.666669a21.333333 21.333333 0 0 0-8.48-18.6l-16.446667-12.333333a106.199999 106.199999 0 0 1-41.213333-67.799999l-5.786666-34.72A21.333333 21.333333 0 0 0 305.806665 469.333337a21.76 21.76 0 0 0-2.666667 0.173333c-2.94 0.373333-5.72 0.72-10.106667-5.833333-5.193333-7.74-9.026667-20-12.733333-31.833333-2-6.386667-4.066667-12.986667-6.393333-18.946667C266.253332 393.386671 261.333332 369.740004 261.333332 352.666671c0-3.013333 0.406667-8.42 3.126666-10.806667 2-1.74 5.76-2.433333 10.14-1.866666a21.333333 21.333333 0 0 0 24.066667-21.16V158.493339a42.56 42.56 0 0 1 19.286666-35.68 20.866667 20.866667 0 0 0 2.093334-1.566666c29.333333-24.846667 85.793333-46.106666 163.333332-61.486667 30.96-6.14 60.273333-10.306667 83.853333-12.993333-10.246667 13.133333-13.566667 20.253333-15.2 25.153333a21.333333 21.333333 0 0 0 15.806666 27.62l81.026666 17.22a42.873333 42.873333 0 0 1 33.8 41.733333v160.339999a21.333333 21.333333 0 0 0 24.066667 21.166666c4.38-0.566667 8.166667 0.126667 10.14 1.866667 2.72 2.386667 3.126667 7.793333 3.126666 10.806667 0 17.073333-4.92 40.72-12.54 60.246666-2.326667 5.96-4.393333 12.56-6.393333 18.946667-3.706667 11.84-7.54 24.093333-12.733333 31.833333-4.386667 6.553333-7.166667 6.206667-10.106667 5.833333a21.333333 21.333333 0 0 0-23.72 17.66l-5.786666 34.72a106.199999 106.199999 0 0 1-41.213333 67.799999l-16.446667 12.333333A21.333333 21.333333 0 0 0 582.579996 620.666669c5.12 70.82 41.413333 119.759999 104.946666 141.526666 21.886667 7.5 43.4 14 64.206666 20.253333 47.933333 14.446667 93.213333 28.086666 126.113333 49.753333 34.406666 22.666667 52.48 51.793333 58.6 94.46a10.366667 10.366667 0 0 1-2.446667 8.3zM895.999994 277.333338a21.333333 21.333333 0 0 1 21.333333-21.333333h85.333333a21.333333 21.333333 0 0 1 0 42.666666h-85.333333a21.333333 21.333333 0 0 1-21.333333-21.333333z m127.999999 255.999999a21.333333 21.333333 0 0 1-21.333333 21.333333h-127.999999a21.333333 21.333333 0 0 1 0-42.666667h127.999999a21.333333 21.333333 0 0 1 21.333333 21.333334z m0 255.999998a21.333333 21.333333 0 0 1-21.333333 21.333333h-21.333333a21.333333 21.333333 0 0 1 0-42.666666h21.333333a21.333333 21.333333 0 0 1 21.333333 21.333333z" fill="#64d77e" p-id="2478"></path></svg>